<svg width="24" height="24" viewBox="0 0 24 24" fill="none" xmlns="http://www.w3.org/2000/svg">
<path d="M4 8H2V18H4V8Z" fill="#3A94DE"/>
<path d="M4 8H2V6H4V8Z" fill="#3A94DE"/>
<path d="M22 8H20V6H22V8Z" fill="#3A94DE"/>
<path d="M22 10H20V8H22V10Z" fill="#3A94DE"/>
<path d="M22 12H20V10H22V12Z" fill="#3A94DE"/>
<path d="M22 14H20V12H22V14Z" fill="#3A94DE"/>
<path d="M22 16H20V14H22V16Z" fill="#3A94DE"/>
<path d="M22 18H20V16H22V18Z" fill="#3A94DE"/>
<path d="M19 9H17V7H19V9Z" fill="white"/>
<path d="M13 15H11V13H13V15Z" fill="white"/>
<path d="M15 13H13V11H15V13Z" fill="white"/>
<path d="M17 11H15V9H17V11Z" fill="white"/>
<path d="M11 13H9V11H11V13Z" fill="white"/>
<path d="M7 9H5V7H7V9Z" fill="white"/>
<path d="M9 9H7V7H9V9Z" fill="#3A94DE"/>
<path d="M11 9H9V7H11V9Z" fill="#3A94DE"/>
<path d="M13 9H11V7H13V9Z" fill="#3A94DE"/>
<path d="M15 9H13V7H15V9Z" fill="#3A94DE"/>
<path d="M17 9H15V7H17V9Z" fill="#3A94DE"/>
<path d="M11 11H9V9H11V11Z" fill="#3A94DE"/>
<path d="M13 11H11V9H13V11Z" fill="#3A94DE"/>
<path d="M15 11H13V9H15V11Z" fill="#3A94DE"/>
<path d="M19 11H17V9H19V11Z" fill="#3A94DE"/>
<path d="M19 13H17V11H19V13Z" fill="#3A94DE"/>
<path d="M17 13H15V11H17V13Z" fill="#3A94DE"/>
<path d="M13 13H11V11H13V13Z" fill="#3A94DE"/>
<path d="M9 13H7V11H9V13Z" fill="#3A94DE"/>
<path d="M7 13H5V11H7V13Z" fill="#3A94DE"/>
<path d="M7 11H5V9H7V11Z" fill="#3A94DE"/>
<path d="M7 15H5V13H7V15Z" fill="#3A94DE"/>
<path d="M9 15H7V13H9V15Z" fill="#3A94DE"/>
<path d="M11 15H9V13H11V15Z" fill="#3A94DE"/>
<path d="M15 15H13V13H15V15Z" fill="#3A94DE"/>
<path d="M17 15H15V13H17V15Z" fill="#3A94DE"/>
<path d="M19 15H17V13H19V15Z" fill="#3A94DE"/>
<path d="M19 17H17V15H19V17Z" fill="#3A94DE"/>
<path d="M17 17H15V15H17V17Z" fill="#3A94DE"/>
<path d="M15 17H13V15H15V17Z" fill="#3A94DE"/>
<path d="M13 17H11V15H13V17Z" fill="#3A94DE"/>
<path d="M11 17H9V15H11V17Z" fill="#3A94DE"/>
<path d="M9 17H7V15H9V17Z" fill="#3A94DE"/>
<path d="M7 17H5V15H7V17Z" fill="#3A94DE"/>
<path d="M5 17H4V15H5V17Z" fill="#3A94DE"/>
<path d="M5 15H4V13H5V15Z" fill="#3A94DE"/>
<path d="M5 13H4V11H5V13Z" fill="#3A94DE"/>
<path d="M5 11H4V9H5V11Z" fill="#3A94DE"/>
<path d="M5 9H4V7H5V9Z" fill="#3A94DE"/>
<path d="M20 9H19V7H20V9Z" fill="#3A94DE"/>
<path d="M20 11H19V9H20V11Z" fill="#3A94DE"/>
<path d="M20 13H19V11H20V13Z" fill="#3A94DE"/>
<path d="M20 15H19V13H20V15Z" fill="#3A94DE"/>
<path d="M20 17H19V15H20V17Z" fill="#3A94DE"/>
<path d="M20 18H4V17H20V18Z" fill="#3A94DE"/>
<path d="M20 7H4V6H20V7Z" fill="#3A94DE"/>
<path d="M9 11H7V9H9V11Z" fill="white"/>
</svg>
