<svg width="24" height="24" viewBox="0 0 24 24" fill="none" xmlns="http://www.w3.org/2000/svg">
<path d="M4 8H2V18H4V8Z" fill="black"/>
<path d="M4 8H2V6H4V8Z" fill="black"/>
<path d="M6 6H4V4H6V6Z" fill="black"/>
<path d="M8 6H6V4H8V6Z" fill="black"/>
<path d="M10 6H8V4H10V6Z" fill="black"/>
<path d="M12 6H10V4H12V6Z" fill="black"/>
<path d="M14 6H12V4H14V6Z" fill="black"/>
<path d="M16 6H14V4H16V6Z" fill="black"/>
<path d="M18 6H16V4H18V6Z" fill="black"/>
<path d="M20 6H18V4H20V6Z" fill="black"/>
<path d="M22 8H20V6H22V8Z" fill="black"/>
<path d="M22 10H20V8H22V10Z" fill="black"/>
<path d="M22 12H20V10H22V12Z" fill="black"/>
<path d="M22 14H20V12H22V14Z" fill="black"/>
<path d="M22 16H20V14H22V16Z" fill="black"/>
<path d="M22 18H20V16H22V18Z" fill="black"/>
<path d="M20 20H18V18H20V20Z" fill="black"/>
<path d="M18 20H16V18H18V20Z" fill="black"/>
<path d="M16 20H14V18H16V20Z" fill="black"/>
<path d="M14 20H12V18H14V20Z" fill="black"/>
<path d="M12 20H10V18H12V20Z" fill="black"/>
<path d="M10 20H8V18H10V20Z" fill="black"/>
<path d="M8 20H6V18H8V20Z" fill="black"/>
<path d="M6 20H4V18H6V20Z" fill="black"/>
<path d="M19 9H17V7H19V9Z" fill="black"/>
<path d="M13 15H11V13H13V15Z" fill="black"/>
<path d="M15 13H13V11H15V13Z" fill="black"/>
<path d="M17 11H15V9H17V11Z" fill="black"/>
<path d="M11 13H9V11H11V13Z" fill="black"/>
<path d="M7 9H5V7H7V9Z" fill="black"/>
<path d="M9 11H7V9H9V11Z" fill="black"/>
</svg>
