<svg width="24" height="24" viewBox="0 0 24 24" fill="none" xmlns="http://www.w3.org/2000/svg">
<path d="M4 8H2V18H4V8Z" fill="#F6DA0E"/>
<path d="M4 8H2V6H4V8Z" fill="#D923F2"/>
<path d="M11 11H9V9H11V11Z" fill="#D923F2"/>
<path d="M13 11H11V9H13V11Z" fill="#D923F2"/>
<path d="M15 11H13V9H15V11Z" fill="#D923F2"/>
<path d="M13 13H11V11H13V13Z" fill="#D923F2"/>
<path d="M13 15H11V13H13V15Z" fill="#D923F2"/>
<path d="M15 15H13V13H15V15Z" fill="#D923F2"/>
<path d="M15 13H13V11H15V13Z" fill="#D923F2"/>
<path d="M17 17H15V15H17V17Z" fill="#D923F2"/>
<path d="M19 17H17V15H19V17Z" fill="#D923F2"/>
<path d="M19 15H17V13H19V15Z" fill="#D923F2"/>
<path d="M19 13H17V11H19V13Z" fill="#D923F2"/>
<path d="M19 11H17V9H19V11Z" fill="#D923F2"/>
<path d="M20 8H18V6H20V8Z" fill="#D923F2"/>
<path d="M20 10H18V8H20V10Z" fill="#D923F2"/>
<path d="M20 12H18V10H20V12Z" fill="#D923F2"/>
<path d="M20 14H18V12H20V14Z" fill="#D923F2"/>
<path d="M20 16H18V14H20V16Z" fill="#D923F2"/>
<path d="M20 18H18V16H20V18Z" fill="#D923F2"/>
<path d="M18 19H16V17H18V19Z" fill="#D923F2"/>
<path d="M18 20H16V19H18V20Z" fill="#D923F2"/>
<path d="M16 20H14V17H16V20Z" fill="#D923F2"/>
<path d="M6 6H4V4H6V6Z" fill="#D923F2"/>
<path d="M8 4H6V2H8V4Z" fill="#D923F2"/>
<path d="M10 4H8V2H10V4Z" fill="#D923F2"/>
<path d="M12 4H10V2H12V4Z" fill="#D923F2"/>
<path d="M14 4H12V2H14V4Z" fill="#D923F2"/>
<path d="M16 4H14V2H16V4Z" fill="#D923F2"/>
<path d="M18 4H16V2H18V4Z" fill="#D923F2"/>
<path d="M20 6H18V4H20V6Z" fill="#D923F2"/>
<path d="M18 6H16V4H18V6Z" fill="#D923F2"/>
<path d="M16 6H14V4H16V6Z" fill="#D923F2"/>
<path d="M14 6H12V4H14V6Z" fill="#D923F2"/>
<path d="M12 6H10V4H12V6Z" fill="#D923F2"/>
<path d="M10 6H8V4H10V6Z" fill="#D923F2"/>
<path d="M8 6H6V4H8V6Z" fill="#D923F2"/>
<path d="M6 8H4V6H6V8Z" fill="#D923F2"/>
<path d="M8 8H6V6H8V8Z" fill="#D923F2"/>
<path d="M10 7H8V6H10V7Z" fill="#D923F2"/>
<path d="M12 7H10V6H12V7Z" fill="#D923F2"/>
<path d="M14 7H12V6H14V7Z" fill="#D923F2"/>
<path d="M16 7H14V6H16V7Z" fill="#D923F2"/>
<path d="M16 8H15V7H16V8Z" fill="#D923F2"/>
<path d="M16 9H15V8H16V9Z" fill="#D923F2"/>
<path d="M17 9H16V8H17V9Z" fill="#D923F2"/>
<path d="M18 9H17V8H18V9Z" fill="#D923F2"/>
<path d="M9 8H8V7H9V8Z" fill="#D923F2"/>
<path d="M9 9H8V8H9V9Z" fill="#D923F2"/>
<path d="M8 9H7V8H8V9Z" fill="#D923F2"/>
<path d="M7 9H6V8H7V9Z" fill="#D923F2"/>
<path d="M6 9H5V8H6V9Z" fill="#D923F2"/>
<path d="M5 9H4V8H5V9Z" fill="#D923F2"/>
<path d="M22 8H20V6H22V8Z" fill="#D923F2"/>
<path d="M22 10H20V8H22V10Z" fill="#D923F2"/>
<path d="M22 12H20V10H22V12Z" fill="#D923F2"/>
<path d="M22 14H20V12H22V14Z" fill="#D923F2"/>
<path d="M22 16H20V14H22V16Z" fill="#D923F2"/>
<path d="M22 18H20V16H22V18Z" fill="#D923F2"/>
<path d="M20 20H18V18H20V20Z" fill="#D923F2"/>
<path d="M18 22H16V20H18V22Z" fill="#D923F2"/>
<path d="M16 22H14V20H16V22Z" fill="#F6DA0E"/>
<path d="M14 22H12V20H14V22Z" fill="#F6DA0E"/>
<path d="M12 22H10V20H12V22Z" fill="#F6DA0E"/>
<path d="M10 22H8V20H10V22Z" fill="#F6DA0E"/>
<path d="M8 22H6V20H8V22Z" fill="#F6DA0E"/>
<path d="M6 20H4V18H6V20Z" fill="#F6DA0E"/>
<path d="M6 18H4V16H6V18Z" fill="#F6DA0E"/>
<path d="M8 20H6V18H8V20Z" fill="#F6DA0E"/>
<path d="M7 15H5V13H7V15Z" fill="#FE6901"/>
<path d="M7 13H5V11H7V13Z" fill="#FE6901"/>
<path d="M7 11H5V9H7V11Z" fill="#FE6901"/>
<path d="M5 10H4V9H5V10Z" fill="#FE6901"/>
<path d="M5 11H4V10H5V11Z" fill="#FE6901"/>
<path d="M5 12H4V11H5V12Z" fill="#FE6901"/>
<path d="M5 13H4V12H5V13Z" fill="#FE6901"/>
<path d="M5 14H4V13H5V14Z" fill="#FE6901"/>
<path d="M5 15H4V14H5V15Z" fill="#FE6901"/>
<path d="M5 16H4V15H5V16Z" fill="#FE6901"/>
<path d="M6 16H5V15H6V16Z" fill="#FE6901"/>
<path d="M7 16H6V15H7V16Z" fill="#FE6901"/>
<path d="M7 17H6V16H7V17Z" fill="#FE6901"/>
<path d="M7 18H6V17H7V18Z" fill="#FE6901"/>
<path d="M8 18H7V17H8V18Z" fill="#FE6901"/>
<path d="M9 18H8V17H9V18Z" fill="#FE6901"/>
<path d="M9 19H8V18H9V19Z" fill="#FE6901"/>
<path d="M9 20H8V19H9V20Z" fill="#FE6901"/>
<path d="M10 20H9V19H10V20Z" fill="#FE6901"/>
<path d="M11 20H10V19H11V20Z" fill="#FE6901"/>
<path d="M12 20H11V19H12V20Z" fill="#FE6901"/>
<path d="M13 20H12V19H13V20Z" fill="#FE6901"/>
<path d="M14 20H13V19H14V20Z" fill="#FE6901"/>
<path d="M9 17H7V15H9V17Z" fill="#FE6901"/>
<path d="M11 15H9V13H11V15Z" fill="#FE6901"/>
<path d="M11 13H9V11H11V13Z" fill="#FE6901"/>
<path d="M11 19H9V17H11V19Z" fill="#FE6901"/>
<path d="M12 19H10V17H12V19Z" fill="#FE6901"/>
<path d="M14 19H12V17H14V19Z" fill="#FE6901"/>
<path d="M18 8H16V6H18V8Z" fill="white"/>
<path d="M13 9H11V7H13V9Z" fill="white"/>
<path d="M15 9H13V7H15V9Z" fill="white"/>
<path d="M17 11H15V9H17V11Z" fill="white"/>
<path d="M17 13H15V11H17V13Z" fill="white"/>
<path d="M17 15H15V13H17V15Z" fill="white"/>
<path d="M15 17H13V15H15V17Z" fill="white"/>
<path d="M13 17H11V15H13V17Z" fill="white"/>
<path d="M11 17H9V15H11V17Z" fill="white"/>
<path d="M9 15H7V13H9V15Z" fill="white"/>
<path d="M9 13H7V11H9V13Z" fill="white"/>
<path d="M9 11H7V9H9V11Z" fill="white"/>
<path d="M11 9H9V7H11V9Z" fill="white"/>
</svg>
