<svg width="24" height="24" viewBox="0 0 24 24" fill="none" xmlns="http://www.w3.org/2000/svg">
<path d="M4 8H2V18H4V8Z" fill="black"/>
<path d="M4 8H2V6H4V8Z" fill="black"/>
<path d="M6 6H4V4H6V6Z" fill="black"/>
<path d="M8 4H6V2H8V4Z" fill="black"/>
<path d="M10 4H8V2H10V4Z" fill="black"/>
<path d="M12 4H10V2H12V4Z" fill="black"/>
<path d="M14 4H12V2H14V4Z" fill="black"/>
<path d="M16 4H14V2H16V4Z" fill="black"/>
<path d="M18 4H16V2H18V4Z" fill="black"/>
<path d="M20 6H18V4H20V6Z" fill="black"/>
<path d="M22 8H20V6H22V8Z" fill="black"/>
<path d="M22 10H20V8H22V10Z" fill="black"/>
<path d="M22 12H20V10H22V12Z" fill="black"/>
<path d="M22 14H20V12H22V14Z" fill="black"/>
<path d="M22 16H20V14H22V16Z" fill="black"/>
<path d="M22 18H20V16H22V18Z" fill="black"/>
<path d="M20 20H18V18H20V20Z" fill="black"/>
<path d="M18 22H16V20H18V22Z" fill="black"/>
<path d="M16 22H14V20H16V22Z" fill="black"/>
<path d="M14 22H12V20H14V22Z" fill="black"/>
<path d="M12 22H10V20H12V22Z" fill="black"/>
<path d="M10 22H8V20H10V22Z" fill="black"/>
<path d="M8 22H6V20H8V22Z" fill="black"/>
<path d="M6 20H4V18H6V20Z" fill="black"/>
<path d="M18 8H16V6H18V8Z" fill="black"/>
<path d="M13 9H11V7H13V9Z" fill="black"/>
<path d="M15 9H13V7H15V9Z" fill="black"/>
<path d="M17 11H15V9H17V11Z" fill="black"/>
<path d="M17 13H15V11H17V13Z" fill="black"/>
<path d="M17 15H15V13H17V15Z" fill="black"/>
<path d="M15 17H13V15H15V17Z" fill="black"/>
<path d="M13 17H11V15H13V17Z" fill="black"/>
<path d="M11 17H9V15H11V17Z" fill="black"/>
<path d="M9 15H7V13H9V15Z" fill="black"/>
<path d="M9 13H7V11H9V13Z" fill="black"/>
<path d="M9 11H7V9H9V11Z" fill="black"/>
<path d="M11 9H9V7H11V9Z" fill="black"/>
</svg>
