<svg width="24" height="24" viewBox="0 0 24 24" fill="none" xmlns="http://www.w3.org/2000/svg">
<path d="M4 8H3V18H4V8Z" fill="black"/>
<path d="M3 8H2V18H3V8Z" fill="black"/>
<path d="M22 8H21V18H22V8Z" fill="black"/>
<path d="M8 2L8 3L18 3L18 2L8 2Z" fill="black"/>
<path d="M8 21L8 22L18 22L18 21L8 21Z" fill="black"/>
<path d="M4 8H3V6H4V8Z" fill="black"/>
<path d="M3 8H2V6H3V8Z" fill="black"/>
<path d="M22 8H21V6H22V8Z" fill="black"/>
<path d="M8 2L8 3L6 3L6 2L8 2Z" fill="black"/>
<path d="M8 21L8 22L6 22L6 21L8 21Z" fill="black"/>
<path d="M4 6H3V4H4V6Z" fill="black"/>
<path d="M3 6H2V4H3V6Z" fill="black"/>
<path d="M22 6H21V4H22V6Z" fill="black"/>
<path d="M6 2L6 3L4 3L4 2L6 2Z" fill="black"/>
<path d="M6 21L6 22L4 22L4 21L6 21Z" fill="black"/>
<path d="M6 4H4V3H6V4Z" fill="black"/>
<path d="M8 4H6V3H8V4Z" fill="black"/>
<path d="M10 4H8V3H10V4Z" fill="black"/>
<path d="M12 4H10V3H12V4Z" fill="black"/>
<path d="M14 4H12V3H14V4Z" fill="black"/>
<path d="M16 4H14V3H16V4Z" fill="black"/>
<path d="M18 4H16V3H18V4Z" fill="black"/>
<path d="M20 4H18V3H20V4Z" fill="black"/>
<path d="M21 8H20V6H21V8Z" fill="black"/>
<path d="M21 6H20V4H21V6Z" fill="black"/>
<path d="M21 20H20V18H21V20Z" fill="black"/>
<path d="M4 20H3V18H4V20Z" fill="black"/>
<path d="M3 20H2V18H3V20Z" fill="black"/>
<path d="M22 20H21V18H22V20Z" fill="black"/>
<path d="M20 2L20 3L18 3L18 2L20 2Z" fill="black"/>
<path d="M20 21L20 22L18 22L18 21L20 21Z" fill="black"/>
<path d="M21 10H20V8H21V10Z" fill="black"/>
<path d="M21 12H20V10H21V12Z" fill="black"/>
<path d="M21 14H20V12H21V14Z" fill="black"/>
<path d="M21 16H20V14H21V16Z" fill="black"/>
<path d="M21 18H20V16H21V18Z" fill="black"/>
<path d="M20 21H18V20H20V21Z" fill="black"/>
<path d="M18 21H16V20H18V21Z" fill="black"/>
<path d="M16 21H14V20H16V21Z" fill="black"/>
<path d="M14 21H12V20H14V21Z" fill="black"/>
<path d="M12 21H10V20H12V21Z" fill="black"/>
<path d="M10 21H8V20H10V21Z" fill="black"/>
<path d="M8 21H6V20H8V21Z" fill="black"/>
<path d="M6 21H4V20H6V21Z" fill="black"/>
<path d="M18 12H16V10H18V12Z" fill="black"/>
<path d="M18 18H16V16H18V18Z" fill="black"/>
<path d="M18 16H16V14H18V16Z" fill="black"/>
<path d="M18 14H16V12H18V14Z" fill="black"/>
<path d="M16 12H14V10H16V12Z" fill="black"/>
<path d="M8 16H6V14H8V16Z" fill="black"/>
<path d="M8 18H6V16H8V18Z" fill="black"/>
<path d="M12 18H10V16H12V18Z" fill="black"/>
<path d="M12 16H10V14H12V16Z" fill="black"/>
<path d="M12 14H10V12H12V14Z" fill="black"/>
<path d="M12 12H10V10H12V12Z" fill="black"/>
<path d="M14 13H12V11H14V13Z" fill="black"/>
<path d="M8 14H6V12H8V14Z" fill="black"/>
<path d="M8 8H6V6H8V8Z" fill="black"/>
<path d="M8 12H6V10H8V12Z" fill="black"/>
</svg>
