<svg width="24" height="24" viewBox="0 0 24 24" fill="none" xmlns="http://www.w3.org/2000/svg">
<path d="M4 8H3V18H4V8Z" fill="#010689"/>
<path d="M3 8H2V18H3V8Z" fill="#010689"/>
<path d="M22 8H21V18H22V8Z" fill="#010689"/>
<path d="M8 2L8 3L18 3L18 2L8 2Z" fill="#010689"/>
<path d="M8 21L8 22L18 22L18 21L8 21Z" fill="#010689"/>
<path d="M4 8H3V6H4V8Z" fill="#010689"/>
<path d="M3 8H2V6H3V8Z" fill="#010689"/>
<path d="M22 8H21V6H22V8Z" fill="#010689"/>
<path d="M8 2L8 3L6 3L6 2L8 2Z" fill="#010689"/>
<path d="M8 21L8 22L6 22L6 21L8 21Z" fill="#010689"/>
<path d="M4 6H3V4H4V6Z" fill="#010689"/>
<path d="M3 6H2V4H3V6Z" fill="#010689"/>
<path d="M3 6H2V4H3V6Z" fill="#010689"/>
<path d="M22 6H21V4H22V6Z" fill="#010689"/>
<path d="M6 2L6 3L4 3L4 2L6 2Z" fill="#010689"/>
<path d="M6 21L6 22L4 22L4 21L6 21Z" fill="#010689"/>
<path d="M6 4H4V3H6V4Z" fill="#010689"/>
<path d="M8 4H6V3H8V4Z" fill="#010689"/>
<path d="M10 4H8V3H10V4Z" fill="#010689"/>
<path d="M12 4H10V3H12V4Z" fill="#010689"/>
<path d="M14 4H12V3H14V4Z" fill="#010689"/>
<path d="M16 4H14V3H16V4Z" fill="#010689"/>
<path d="M18 4H16V3H18V4Z" fill="#010689"/>
<path d="M20 4H18V3H20V4Z" fill="#010689"/>
<path d="M21 8H20V6H21V8Z" fill="#010689"/>
<path d="M21 6H20V4H21V6Z" fill="#010689"/>
<path d="M21 20H20V18H21V20Z" fill="#010689"/>
<path d="M4 20H3V18H4V20Z" fill="#010689"/>
<path d="M3 20H2V18H3V20Z" fill="#010689"/>
<path d="M22 20H21V18H22V20Z" fill="#010689"/>
<path d="M20 2L20 3L18 3L18 2L20 2Z" fill="#010689"/>
<path d="M20 21L20 22L18 22L18 21L20 21Z" fill="#010689"/>
<path d="M21 10H20V8H21V10Z" fill="#010689"/>
<path d="M21 12H20V10H21V12Z" fill="#010689"/>
<path d="M21 14H20V12H21V14Z" fill="#010689"/>
<path d="M21 16H20V14H21V16Z" fill="#010689"/>
<path d="M21 18H20V16H21V18Z" fill="#010689"/>
<path d="M20 21H18V20H20V21Z" fill="#010689"/>
<path d="M18 21H16V20H18V21Z" fill="#010689"/>
<path d="M16 21H14V20H16V21Z" fill="#010689"/>
<path d="M14 21H12V20H14V21Z" fill="#010689"/>
<path d="M12 21H10V20H12V21Z" fill="#010689"/>
<path d="M10 21H8V20H10V21Z" fill="#010689"/>
<path d="M8 21H6V20H8V21Z" fill="#010689"/>
<path d="M6 21H4V20H6V21Z" fill="#010689"/>
<path d="M18 12H16V10H18V12Z" fill="white"/>
<path d="M18 18H16V16H18V18Z" fill="white"/>
<path d="M18 16H16V14H18V16Z" fill="white"/>
<path d="M18 14H16V12H18V14Z" fill="white"/>
<path d="M16 12H14V10H16V12Z" fill="white"/>
<path d="M8 16H6V14H8V16Z" fill="white"/>
<path d="M8 18H6V16H8V18Z" fill="white"/>
<path d="M12 18H10V16H12V18Z" fill="white"/>
<path d="M12 16H10V14H12V16Z" fill="white"/>
<path d="M12 14H10V12H12V14Z" fill="white"/>
<path d="M12 12H10V10H12V12Z" fill="white"/>
<path d="M14 13H12V11H14V13Z" fill="white"/>
<path d="M8 14H6V12H8V14Z" fill="white"/>
<path d="M8 8H6V6H8V8Z" fill="white"/>
<path d="M6 6H4V4H6V6Z" fill="#010689"/>
<path d="M8 6H6V4H8V6Z" fill="#010689"/>
<path d="M10 6H8V4H10V6Z" fill="#010689"/>
<path d="M12 6H10V4H12V6Z" fill="#010689"/>
<path d="M14 6H12V4H14V6Z" fill="#010689"/>
<path d="M16 6H14V4H16V6Z" fill="#010689"/>
<path d="M18 6H16V4H18V6Z" fill="#010689"/>
<path d="M20 6H18V4H20V6Z" fill="#010689"/>
<path d="M6 8H4V6H6V8Z" fill="#010689"/>
<path d="M10 8H8V6H10V8Z" fill="#010689"/>
<path d="M14 8H12V6H14V8Z" fill="#010689"/>
<path d="M12 8H10V6H12V8Z" fill="#010689"/>
<path d="M16 8H14V6H16V8Z" fill="#010689"/>
<path d="M18 8H16V6H18V8Z" fill="#010689"/>
<path d="M20 8H18V6H20V8Z" fill="#010689"/>
<path d="M20 10H18V8H20V10Z" fill="#010689"/>
<path d="M20 12H18V10H20V12Z" fill="#010689"/>
<path d="M20 14H18V12H20V14Z" fill="#010689"/>
<path d="M20 16H18V14H20V16Z" fill="#010689"/>
<path d="M20 18H18V16H20V18Z" fill="#010689"/>
<path d="M20 20H18V18H20V20Z" fill="#010689"/>
<path d="M18 20H16V18H18V20Z" fill="#010689"/>
<path d="M16 20H14V18H16V20Z" fill="#010689"/>
<path d="M14 20H12V18H14V20Z" fill="#010689"/>
<path d="M12 20H10V18H12V20Z" fill="#010689"/>
<path d="M10 20H8V18H10V20Z" fill="#010689"/>
<path d="M8 20H6V18H8V20Z" fill="#010689"/>
<path d="M6 20H4V18H6V20Z" fill="#010689"/>
<path d="M6 18H4V16H6V18Z" fill="#010689"/>
<path d="M6 16H4V14H6V16Z" fill="#010689"/>
<path d="M6 14H4V12H6V14Z" fill="#010689"/>
<path d="M6 12H4V10H6V12Z" fill="#010689"/>
<path d="M6 10H4V8H6V10Z" fill="#010689"/>
<path d="M8 10H6V8H8V10Z" fill="#010689"/>
<path d="M10 10H8V8H10V10Z" fill="#010689"/>
<path d="M12 10H10V8H12V10Z" fill="#010689"/>
<path d="M14 10H12V8H14V10Z" fill="#010689"/>
<path d="M16 10H14V8H16V10Z" fill="#010689"/>
<path d="M18 10H16V8H18V10Z" fill="#010689"/>
<path d="M16 14H14V12H16V14Z" fill="#010689"/>
<path d="M16 16H14V14H16V16Z" fill="#010689"/>
<path d="M16 18H14V16H16V18Z" fill="#010689"/>
<path d="M14 18H12V16H14V18Z" fill="#010689"/>
<path d="M14 16H12V14H14V16Z" fill="#010689"/>
<path d="M10 18H8V16H10V18Z" fill="#010689"/>
<path d="M10 16H8V14H10V16Z" fill="#010689"/>
<path d="M10 14H8V12H10V14Z" fill="#010689"/>
<path d="M10 12H8V10H10V12Z" fill="#010689"/>
<path d="M14 11H12V10H14V11Z" fill="#010689"/>
<path d="M14 14H12V13H14V14Z" fill="#010689"/>
<path d="M8 12H6V10H8V12Z" fill="white"/>
</svg>
