<svg width="24" height="24" viewBox="0 0 24 24" fill="none" xmlns="http://www.w3.org/2000/svg">
<path d="M4 16H2V14H4V16Z" fill="#4EB03F"/>
<path d="M4 14H2V12H4V14Z" fill="#4EB03F"/>
<path d="M4 12H2V10H4V12Z" fill="#4EB03F"/>
<path d="M4 10H2V8H4V10Z" fill="#4EB03F"/>
<path d="M6 8H4V6H6V8Z" fill="#4EB03F"/>
<path d="M8 6H6V4H8V6Z" fill="#4EB03F"/>
<path d="M10 6H8V4H10V6Z" fill="#4EB03F"/>
<path d="M12 6H10V4H12V6Z" fill="#4EB03F"/>
<path d="M14 6H12V4H14V6Z" fill="#4EB03F"/>
<path d="M16 6H14V4H16V6Z" fill="#4EB03F"/>
<path d="M8 8H6V6H8V8Z" fill="#4EB03F"/>
<path d="M10 8H8V6H10V8Z" fill="#4EB03F"/>
<path d="M12 8H10V6H12V8Z" fill="#4EB03F"/>
<path d="M14 8H12V6H14V8Z" fill="#4EB03F"/>
<path d="M16 8H14V6H16V8Z" fill="#4EB03F"/>
<path d="M18 8H16V6H18V8Z" fill="#4EB03F"/>
<path d="M6 10H4V8H6V10Z" fill="#4EB03F"/>
<path d="M8 10H6V8H8V10Z" fill="#4EB03F"/>
<path d="M18 10H16V8H18V10Z" fill="#4EB03F"/>
<path d="M20 10H18V8H20V10Z" fill="#4EB03F"/>
<path d="M20 12H18V10H20V12Z" fill="#4EB03F"/>
<path d="M20 14H18V12H20V14Z" fill="#4EB03F"/>
<path d="M20 16H18V14H20V16Z" fill="#4EB03F"/>
<path d="M6 12H4V10H6V12Z" fill="#4EB03F"/>
<path d="M6 14H4V12H6V14Z" fill="#4EB03F"/>
<path d="M6 16H4V14H6V16Z" fill="#4EB03F"/>
<path d="M8 18H6V16H8V18Z" fill="#4EB03F"/>
<path d="M12 20H10V18H12V20Z" fill="#4EB03F"/>
<path d="M14 20H12V18H14V20Z" fill="#4EB03F"/>
<path d="M16 20H14V18H16V20Z" fill="#4EB03F"/>
<path d="M18 18H16V16H18V18Z" fill="#4EB03F"/>
<path d="M18 16H16V14H18V16Z" fill="#4EB03F"/>
<path d="M18 14H16V12H18V14Z" fill="#4EB03F"/>
<path d="M16 13H14V11H16V13Z" fill="#4EB03F"/>
<path d="M14 16H12V14H14V16Z" fill="#4EB03F"/>
<path d="M10 18H8V16H10V18Z" fill="#4EB03F"/>
<path d="M12 18H10V16H12V18Z" fill="#4EB03F"/>
<path d="M14 18H12V16H14V18Z" fill="#4EB03F"/>
<path d="M16 18H14V16H16V18Z" fill="#4EB03F"/>
<path d="M16 16H14V15H16V16Z" fill="#4EB03F"/>
<path d="M14 14H12V13H14V14Z" fill="#4EB03F"/>
<path d="M12 14H10V13H12V14Z" fill="#4EB03F"/>
<path d="M10 14H8V13H10V14Z" fill="#4EB03F"/>
<path d="M10 11H8V10H10V11Z" fill="#4EB03F"/>
<path d="M12 11H10V10H12V11Z" fill="#4EB03F"/>
<path d="M14 11H12V10H14V11Z" fill="#4EB03F"/>
<path d="M16 11H14V10H16V11Z" fill="#4EB03F"/>
<path d="M8 16H6V14H8V16Z" fill="#4EB03F"/>
<path d="M8 14H6V12H8V14Z" fill="#4EB03F"/>
<path d="M8 12H6V10H8V12Z" fill="#4EB03F"/>
<path d="M10 20H8V18H10V20Z" fill="#4EB03F"/>
<path d="M12 4H10V2H12V4Z" fill="#4EB03F"/>
<path d="M10 4H8V2H10V4Z" fill="#4EB03F"/>
<path d="M14 4H12V2H14V4Z" fill="#4EB03F"/>
<path d="M16 4H14V2H16V4Z" fill="#4EB03F"/>
<path d="M18 6H16V4H18V6Z" fill="#4EB03F"/>
<path d="M20 8H18V6H20V8Z" fill="#4EB03F"/>
<path d="M22 10H20V8H22V10Z" fill="#4EB03F"/>
<path d="M22 12H20V10H22V12Z" fill="#4EB03F"/>
<path d="M22 14H20V12H22V14Z" fill="#4EB03F"/>
<path d="M22 16H20V14H22V16Z" fill="#4EB03F"/>
<path d="M20 18H18V16H20V18Z" fill="#4EB03F"/>
<path d="M16 22H14V20H16V22Z" fill="#4EB03F"/>
<path d="M18 20H16V18H18V20Z" fill="#4EB03F"/>
<path d="M14 22H12V20H14V22Z" fill="#4EB03F"/>
<path d="M12 22H10V20H12V22Z" fill="#4EB03F"/>
<path d="M10 22H8V20H10V22Z" fill="#4EB03F"/>
<path d="M8 20H6V18H8V20Z" fill="#4EB03F"/>
<path d="M6 18H4V16H6V18Z" fill="#4EB03F"/>
<path d="M10 16H8V14H10V16Z" fill="black"/>
<path d="M12 16H10V14H12V16Z" fill="black"/>
<path d="M10 10H8V8H10V10Z" fill="black"/>
<path d="M10 13H8V11H10V13Z" fill="black"/>
<path d="M12 13H10V11H12V13Z" fill="black"/>
<path d="M14 13H12V11H14V13Z" fill="black"/>
<path d="M16 15H14V13H16V15Z" fill="black"/>
<path d="M12 10H10V8H12V10Z" fill="black"/>
<path d="M14 10H12V8H14V10Z" fill="black"/>
<path d="M16 10H14V8H16V10Z" fill="black"/>
<path d="M18 12H16V10H18V12Z" fill="black"/>
</svg>
