<svg width="24" height="24" viewBox="0 0 24 24" fill="none" xmlns="http://www.w3.org/2000/svg">
<path d="M4 16H2V14H4V16Z" fill="black"/>
<path d="M4 14H2V12H4V14Z" fill="black"/>
<path d="M4 12H2V10H4V12Z" fill="black"/>
<path d="M4 10H2V8H4V10Z" fill="black"/>
<path d="M6 8H4V6H6V8Z" fill="black"/>
<path d="M8 6H6V4H8V6Z" fill="black"/>
<path d="M12 4H10V2H12V4Z" fill="black"/>
<path d="M10 4H8V2H10V4Z" fill="black"/>
<path d="M14 4H12V2H14V4Z" fill="black"/>
<path d="M16 4H14V2H16V4Z" fill="black"/>
<path d="M18 6H16V4H18V6Z" fill="black"/>
<path d="M20 8H18V6H20V8Z" fill="black"/>
<path d="M22 10H20V8H22V10Z" fill="black"/>
<path d="M22 12H20V10H22V12Z" fill="black"/>
<path d="M22 14H20V12H22V14Z" fill="black"/>
<path d="M22 16H20V14H22V16Z" fill="black"/>
<path d="M20 18H18V16H20V18Z" fill="black"/>
<path d="M16 22H14V20H16V22Z" fill="black"/>
<path d="M18 20H16V18H18V20Z" fill="black"/>
<path d="M14 22H12V20H14V22Z" fill="black"/>
<path d="M12 22H10V20H12V22Z" fill="black"/>
<path d="M10 22H8V20H10V22Z" fill="black"/>
<path d="M8 20H6V18H8V20Z" fill="black"/>
<path d="M6 18H4V16H6V18Z" fill="black"/>
<path d="M10 16H8V14H10V16Z" fill="black"/>
<path d="M12 16H10V14H12V16Z" fill="black"/>
<path d="M10 10H8V8H10V10Z" fill="black"/>
<path d="M10 13H8V11H10V13Z" fill="black"/>
<path d="M12 13H10V11H12V13Z" fill="black"/>
<path d="M14 13H12V11H14V13Z" fill="black"/>
<path d="M16 15H14V13H16V15Z" fill="black"/>
<path d="M12 10H10V8H12V10Z" fill="black"/>
<path d="M14 10H12V8H14V10Z" fill="black"/>
<path d="M16 10H14V8H16V10Z" fill="black"/>
<path d="M18 12H16V10H18V12Z" fill="black"/>
</svg>
